<svg xmlns="http://www.w3.org/2000/svg" viewBox="0 0 720 1040" role="img" aria-label="">
  <defs>
    <linearGradient id="paper" x1="0" x2="1" y1="0" y2="1">
      <stop offset="0" stop-color="#fffaf0"/>
      <stop offset="0.48" stop-color="#f7efe1"/>
      <stop offset="1" stop-color="#eef3e7"/>
    </linearGradient>
    <radialGradient id="warm" cx="38%" cy="38%" r="70%">
      <stop offset="0" stop-color="#fffdf8" stop-opacity="0.94"/>
      <stop offset="0.58" stop-color="#f4e6d2" stop-opacity="0.48"/>
      <stop offset="1" stop-color="#dbe8d6" stop-opacity="0.48"/>
    </radialGradient>
    <pattern id="grain" width="96" height="96" patternUnits="userSpaceOnUse">
      <path d="M8 12h1M38 31h1M72 15h1M55 70h1M18 81h1" stroke="#b9ad9e" stroke-opacity="0.16" stroke-width="1.2"/>
      <path d="M12 48h1M44 61h1M83 50h1M67 88h1M31 9h1" stroke="#fff" stroke-opacity="0.42" stroke-width="1.1"/>
    </pattern>
  </defs>

  <rect width="720" height="1040" rx="44" fill="url(#paper)"/>
  <rect width="720" height="1040" rx="44" fill="url(#warm)"/>
  <rect width="720" height="1040" rx="44" fill="url(#grain)" opacity="0.6"/>

  <g fill="none" stroke-linecap="round" stroke-linejoin="round">
    <path d="M508-40 C454 54 542 120 498 202 C457 278 498 352 451 425 C406 496 461 563 411 639 C360 719 418 791 363 880 C330 934 337 993 301 1080" stroke="#8ea28f" stroke-opacity="0.34" stroke-width="52"/>
    <path d="M508-40 C454 54 542 120 498 202 C457 278 498 352 451 425 C406 496 461 563 411 639 C360 719 418 791 363 880 C330 934 337 993 301 1080" stroke="#fdfbf6" stroke-opacity="0.72" stroke-width="10"/>
  </g>

  <g fill="#dfe9d9" opacity="0.78">
    <path d="M-35 192 C80 123 167 179 205 254 C236 314 156 369 84 356 C3 343-62 282-35 192Z"/>
    <path d="M548 37 C688 37 775 140 725 265 C690 353 554 308 529 219 C507 140 461 64 548 37Z"/>
    <path d="M511 654 C627 616 740 674 745 789 C750 888 625 910 548 855 C477 804 418 704 511 654Z"/>
    <path d="M-46 786 C72 708 193 748 216 861 C238 964 105 1066-35 1010 C-118 977-132 844-46 786Z"/>
  </g>

  <g fill="none" stroke="#ddcbb4" stroke-opacity="0.48" stroke-width="2.2">
    <path d="M52 61 C128 94 175 82 246 38 C328-11 395 2 437 69"/>
    <path d="M-14 392 C76 360 135 407 209 390 C302 369 323 284 401 276 C459 270 504 308 575 289 C636 272 670 223 741 234"/>
    <path d="M35 610 C121 543 210 584 272 537 C354 475 337 385 421 359 C513 330 566 394 649 355"/>
    <path d="M71 927 C153 858 254 896 314 827 C380 751 340 673 421 609 C487 557 567 575 639 520"/>
  </g>

  <g fill="none" stroke="#fcfaf4" stroke-opacity="0.88" stroke-width="10">
    <path d="M-20 328 C95 266 212 304 332 263 C459 220 560 154 742 129"/>
    <path d="M-30 513 C83 485 184 508 287 468 C403 423 460 369 534 368 C609 367 657 420 752 404"/>
    <path d="M-29 740 C122 697 233 650 337 665 C455 682 517 752 748 705"/>
    <path d="M124-20 C172 89 145 196 194 292 C242 386 340 444 360 560 C378 667 326 777 376 900 C398 954 437 997 477 1063"/>
    <path d="M646-29 C590 82 574 193 603 302 C639 440 554 523 542 642 C531 753 583 858 548 1069"/>
  </g>

  <g fill="none" stroke="#9faf94" stroke-dasharray="8 14" stroke-linecap="round" stroke-opacity="0.5" stroke-width="3">
    <path d="M31 219 C92 237 131 275 154 332 C196 436 155 517 198 607"/>
    <path d="M99 825 C170 784 239 766 285 696 C328 631 288 558 332 505"/>
    <path d="M438 87 C491 149 482 230 443 304 C408 373 408 445 466 505"/>
    <path d="M568 819 C630 771 662 714 647 626 C635 556 650 507 715 472"/>
  </g>

  <g fill="none" stroke="#ead8bf" stroke-opacity="0.6" stroke-width="1.8">
    <path d="M89 91 C135 123 186 110 223 84 C257 60 301 69 326 98"/>
    <path d="M274 151 C320 177 378 159 409 129 C439 99 481 109 504 145"/>
    <path d="M36 445 C93 419 157 430 199 474 C236 512 296 513 335 485"/>
    <path d="M418 835 C476 805 535 810 578 853 C612 887 660 894 706 870"/>
    <path d="M235 937 C291 907 351 924 383 967 C409 1001 456 1015 503 991"/>
  </g>

  <g fill="#91a58c" opacity="0.62">
    <path d="M106 111c10 0 17 9 17 19s-7 17-17 17-17-7-17-17 7-19 17-19Z"/>
    <path d="M107 121l-6 28h12l-6-28Z"/>
    <path d="M142 129c8 0 14 7 14 15s-6 14-14 14-14-6-14-14 6-15 14-15Z"/>
    <path d="M143 138l-5 24h10l-5-24Z"/>
    <path d="M594 913c9 0 16 8 16 17s-7 16-16 16-16-7-16-16 7-17 16-17Z"/>
    <path d="M595 922l-5 27h11l-6-27Z"/>
    <path d="M622 933c7 0 12 6 12 13s-5 12-12 12-12-5-12-12 5-13 12-13Z"/>
    <path d="M623 940l-4 20h8l-4-20Z"/>
  </g>

  <rect width="720" height="1040" rx="44" fill="#fffaf0" opacity="0.08"/>
</svg>
